<svg width="24" height="24" viewBox="0 0 24 24" fill="none" xmlns="http://www.w3.org/2000/svg">
<path d="M19.5325 23.9113H23.4199C23.5608 23.9113 23.6959 23.8553 23.7955 23.7557C23.8951 23.6561 23.9511 23.521 23.9511 23.3802L23.9531 15.1668C23.9531 10.8739 23.0281 7.57416 18.0114 7.57416C16.1043 7.50323 14.3059 8.48631 13.3354 10.1279C13.3307 10.1358 13.3235 10.1421 13.3149 10.1455C13.3063 10.149 13.2968 10.1496 13.2878 10.1472C13.2788 10.1447 13.2709 10.1395 13.2653 10.1321C13.2596 10.1248 13.2565 10.1158 13.2564 10.1065V8.50172C13.2564 8.36082 13.2004 8.2257 13.1008 8.12607C13.0012 8.02644 12.8661 7.97047 12.7252 7.97047H9.03602C8.89513 7.97047 8.76 8.02644 8.66037 8.12607C8.56074 8.2257 8.50477 8.36082 8.50477 8.50172V23.3794C8.50477 23.5203 8.56074 23.6554 8.66037 23.755C8.76 23.8547 8.89513 23.9106 9.03602 23.9106H12.9232C13.0641 23.9106 13.1992 23.8547 13.2988 23.755C13.3985 23.6554 13.4544 23.5203 13.4544 23.3794V16.0251C13.4544 13.9457 13.8489 11.9319 16.4269 11.9319C18.9683 11.9319 19.0012 14.3113 19.0012 16.1598V23.38C19.0012 23.5209 19.0572 23.6561 19.1568 23.7557C19.2564 23.8553 19.3916 23.9113 19.5325 23.9113ZM0.046875 2.91934C0.046875 4.49503 1.34405 5.79155 2.91987 5.79155C4.4953 5.79141 5.79168 4.4941 5.79168 2.91868C5.79141 1.34326 4.4949 0.046875 2.91934 0.046875C1.34339 0.046875 0.046875 1.34366 0.046875 2.91934ZM0.971117 23.9113H4.86345C5.00435 23.9113 5.13948 23.8553 5.2391 23.7557C5.33873 23.6561 5.3947 23.5209 5.3947 23.38V8.50172C5.3947 8.36082 5.33873 8.2257 5.2391 8.12607C5.13948 8.02644 5.00435 7.97047 4.86345 7.97047H0.971117C0.830221 7.97047 0.695095 8.02644 0.595467 8.12607C0.495838 8.2257 0.439867 8.36082 0.439867 8.50172V23.38C0.439867 23.5209 0.495838 23.6561 0.595467 23.7557C0.695095 23.8553 0.830221 23.9113 0.971117 23.9113Z" fill="white"/>
</svg>
